<?xml version="1.0" standalone="no"?>
<!DOCTYPE svg PUBLIC "-//W3C//DTD SVG 20010904//EN"
 "http://www.w3.org/TR/2001/REC-SVG-20010904/DTD/svg10.dtd">
<svg version="1.0" xmlns="http://www.w3.org/2000/svg"
 width="300.000000pt" height="300.000000pt" viewBox="0 0 300.000000 300.000000"
 preserveAspectRatio="xMidYMid meet">
<metadata>
Created by potrace 1.10, written by Peter Selinger 2001-2011
</metadata>
<g transform="translate(0.000000,300.000000) scale(0.100000,-0.100000)"
fill="#000000" stroke="none">
<path d="M1527 1714 c-4 -4 -7 -77 -7 -163 l0 -156 250 -250 c138 -137 250
-256 250 -262 0 -10 -31 -13 -125 -13 l-125 0 0 103 0 102 -114 114 c-67 67
-120 112 -128 109 -11 -4 -12 -67 -10 -337 l3 -331 544 0 c430 0 545 3 545 13
0 6 -179 190 -397 407 -592 588 -678 671 -686 664z m535 -560 l497 -494 -504
0 -505 0 0 291 c0 276 1 291 18 278 9 -7 52 -47 95 -88 l77 -76 0 -90 c0 -134
1 -135 154 -135 133 0 146 5 146 54 0 25 -34 63 -245 269 l-245 239 0 131 c0
72 3 127 8 123 4 -4 231 -230 504 -502z"/>
<path d="M901 1181 c-294 -290 -532 -533 -530 -540 4 -10 43 -13 164 -12 l160
2 250 249 c138 138 253 250 258 250 4 0 7 -58 7 -130 l0 -130 -102 0 -103 0
-113 -112 c-62 -61 -111 -116 -109 -122 3 -8 103 -10 346 -8 l341 3 0 539 c0
508 -1 540 -17 540 -10 -1 -258 -238 -552 -529z m529 -21 l0 -500 -297 0 -298
0 90 90 90 90 94 0 c132 0 131 -1 131 160 0 113 -2 129 -19 144 -13 12 -25 15
-34 9 -8 -4 -126 -117 -262 -250 l-248 -243 -125 0 c-69 0 -122 3 -118 8 28
29 992 992 994 992 1 0 2 -225 2 -500z"/>
</g>
</svg>
